<mxfile host="app.diagrams.net" agent="Mozilla/5.0 (Macintosh; Intel Mac OS X 10_15_7) AppleWebKit/537.36 (KHTML, like Gecko) Chrome/131.0.0.0 Safari/537.36" version="24.8.4">
  <diagram name="페이지-1" id="rrNVjnt-WTsJbCwg5te3">
    <mxGraphModel dx="2778" dy="1121" grid="1" gridSize="10" guides="1" tooltips="1" connect="1" arrows="1" fold="1" page="1" pageScale="1" pageWidth="827" pageHeight="1169" math="0" shadow="0">
      <root>
        <mxCell id="0" />
        <mxCell id="1" parent="0" />
        <mxCell id="4YztuVcXxpJHYgNVAEmz-1" value="tma-admin" style="rounded=0;whiteSpace=wrap;html=1;" vertex="1" parent="1">
          <mxGeometry x="120" y="320" width="120" height="60" as="geometry" />
        </mxCell>
        <mxCell id="4YztuVcXxpJHYgNVAEmz-2" value="tma-api" style="rounded=0;whiteSpace=wrap;html=1;" vertex="1" parent="1">
          <mxGeometry x="400" y="320" width="120" height="60" as="geometry" />
        </mxCell>
        <mxCell id="4YztuVcXxpJHYgNVAEmz-3" value="Maria DB&amp;nbsp;" style="rounded=0;whiteSpace=wrap;html=1;" vertex="1" parent="1">
          <mxGeometry x="680" y="320" width="120" height="60" as="geometry" />
        </mxCell>
        <mxCell id="4YztuVcXxpJHYgNVAEmz-4" value="IMC" style="rounded=0;whiteSpace=wrap;html=1;" vertex="1" parent="1">
          <mxGeometry x="960" y="320" width="120" height="60" as="geometry" />
        </mxCell>
        <mxCell id="4YztuVcXxpJHYgNVAEmz-5" value="" style="endArrow=none;html=1;rounded=0;" edge="1" parent="1">
          <mxGeometry width="50" height="50" relative="1" as="geometry">
            <mxPoint x="180" y="800" as="sourcePoint" />
            <mxPoint x="180" y="380" as="targetPoint" />
          </mxGeometry>
        </mxCell>
        <mxCell id="4YztuVcXxpJHYgNVAEmz-6" value="" style="endArrow=none;html=1;rounded=0;" edge="1" parent="1">
          <mxGeometry width="50" height="50" relative="1" as="geometry">
            <mxPoint x="460" y="800" as="sourcePoint" />
            <mxPoint x="459.5" y="380" as="targetPoint" />
          </mxGeometry>
        </mxCell>
        <mxCell id="4YztuVcXxpJHYgNVAEmz-7" value="" style="endArrow=none;html=1;rounded=0;" edge="1" parent="1" source="4YztuVcXxpJHYgNVAEmz-18">
          <mxGeometry width="50" height="50" relative="1" as="geometry">
            <mxPoint x="739.5" y="1080" as="sourcePoint" />
            <mxPoint x="739.5" y="380" as="targetPoint" />
          </mxGeometry>
        </mxCell>
        <mxCell id="4YztuVcXxpJHYgNVAEmz-8" value="" style="endArrow=none;html=1;rounded=0;" edge="1" parent="1">
          <mxGeometry width="50" height="50" relative="1" as="geometry">
            <mxPoint x="1020" y="800" as="sourcePoint" />
            <mxPoint x="1019.5" y="380" as="targetPoint" />
          </mxGeometry>
        </mxCell>
        <mxCell id="4YztuVcXxpJHYgNVAEmz-10" value="Actor" style="shape=umlActor;verticalLabelPosition=bottom;verticalAlign=top;html=1;outlineConnect=0;" vertex="1" parent="1">
          <mxGeometry x="-30" y="320" width="30" height="60" as="geometry" />
        </mxCell>
        <mxCell id="4YztuVcXxpJHYgNVAEmz-11" value="" style="endArrow=classic;html=1;rounded=0;entryX=0;entryY=0.5;entryDx=0;entryDy=0;" edge="1" parent="1" target="4YztuVcXxpJHYgNVAEmz-1">
          <mxGeometry width="50" height="50" relative="1" as="geometry">
            <mxPoint x="10" y="350" as="sourcePoint" />
            <mxPoint x="60" y="310" as="targetPoint" />
          </mxGeometry>
        </mxCell>
        <mxCell id="4YztuVcXxpJHYgNVAEmz-14" value="&lt;span style=&quot;text-align: center; text-wrap-mode: nowrap;&quot;&gt;신규 템플릿 등록&lt;/span&gt;" style="text;strokeColor=none;fillColor=none;align=left;verticalAlign=middle;spacingLeft=4;spacingRight=4;overflow=hidden;points=[[0,0.5],[1,0.5]];portConstraint=eastwest;rotatable=0;whiteSpace=wrap;html=1;" vertex="1" parent="1">
          <mxGeometry x="20" y="310" width="90" height="30" as="geometry" />
        </mxCell>
        <mxCell id="4YztuVcXxpJHYgNVAEmz-15" value="" style="endArrow=classic;html=1;rounded=0;" edge="1" parent="1">
          <mxGeometry width="50" height="50" relative="1" as="geometry">
            <mxPoint x="180" y="460" as="sourcePoint" />
            <mxPoint x="460" y="460" as="targetPoint" />
          </mxGeometry>
        </mxCell>
        <mxCell id="4YztuVcXxpJHYgNVAEmz-17" value="신규 템플릿 등록 API 요청" style="text;strokeColor=none;fillColor=none;align=left;verticalAlign=middle;spacingLeft=4;spacingRight=4;overflow=hidden;points=[[0,0.5],[1,0.5]];portConstraint=eastwest;rotatable=0;whiteSpace=wrap;html=1;" vertex="1" parent="1">
          <mxGeometry x="250" y="430" width="150" height="30" as="geometry" />
        </mxCell>
        <mxCell id="4YztuVcXxpJHYgNVAEmz-21" value="IMC에 템플릿 등록 API 호출&amp;nbsp;" style="text;strokeColor=none;fillColor=none;align=left;verticalAlign=middle;spacingLeft=4;spacingRight=4;overflow=hidden;points=[[0,0.5],[1,0.5]];portConstraint=eastwest;rotatable=0;whiteSpace=wrap;html=1;" vertex="1" parent="1">
          <mxGeometry x="660" y="460" width="160" height="30" as="geometry" />
        </mxCell>
        <mxCell id="4YztuVcXxpJHYgNVAEmz-22" value="" style="endArrow=none;html=1;rounded=0;" edge="1" parent="1" target="4YztuVcXxpJHYgNVAEmz-18">
          <mxGeometry width="50" height="50" relative="1" as="geometry">
            <mxPoint x="740" y="800" as="sourcePoint" />
            <mxPoint x="739.5" y="380" as="targetPoint" />
          </mxGeometry>
        </mxCell>
        <mxCell id="4YztuVcXxpJHYgNVAEmz-18" value="&lt;font style=&quot;font-size: 11px;&quot;&gt;Maria DB&amp;nbsp;&lt;/font&gt;&lt;div style=&quot;font-size: 11px;&quot;&gt;&lt;br&gt;&lt;/div&gt;" style="shape=cylinder3;whiteSpace=wrap;html=1;boundedLbl=1;backgroundOutline=1;size=15;" vertex="1" parent="1">
          <mxGeometry x="640" y="310" width="200" height="87.5" as="geometry" />
        </mxCell>
        <mxCell id="4YztuVcXxpJHYgNVAEmz-24" value="신규 템플릿 등록 Flow" style="rounded=1;whiteSpace=wrap;html=1;" vertex="1" parent="1">
          <mxGeometry x="-30" y="230" width="160" height="60" as="geometry" />
        </mxCell>
        <mxCell id="4YztuVcXxpJHYgNVAEmz-25" value="" style="endArrow=classic;startArrow=classic;html=1;rounded=0;" edge="1" parent="1">
          <mxGeometry width="50" height="50" relative="1" as="geometry">
            <mxPoint x="460" y="490" as="sourcePoint" />
            <mxPoint x="1020" y="490" as="targetPoint" />
          </mxGeometry>
        </mxCell>
        <mxCell id="4YztuVcXxpJHYgNVAEmz-29" value="&lt;div style=&quot;text-align: left;&quot;&gt;&lt;span style=&quot;background-color: initial; text-align: center;&quot;&gt;테이블 insert&lt;/span&gt;&lt;/div&gt;&lt;div style=&quot;text-align: left;&quot;&gt;&lt;span style=&quot;background-color: initial; font-size: 11px; text-align: center;&quot;&gt;PROGRAM_MA_AL_TEMPLATE&lt;/span&gt;&lt;/div&gt;&lt;div&gt;&lt;span style=&quot;font-size: 11px; text-align: center; background-color: initial;&quot;&gt;PROGRAM_MA_AL_TEMPLATE_REQ&lt;/span&gt;&lt;/div&gt;" style="text;strokeColor=none;fillColor=none;align=left;verticalAlign=middle;spacingLeft=4;spacingRight=4;overflow=hidden;points=[[0,0.5],[1,0.5]];portConstraint=eastwest;rotatable=0;whiteSpace=wrap;html=1;" vertex="1" parent="1">
          <mxGeometry x="520" y="524" width="240" height="60" as="geometry" />
        </mxCell>
        <mxCell id="4YztuVcXxpJHYgNVAEmz-30" value="" style="endArrow=classic;startArrow=classic;html=1;rounded=0;" edge="1" parent="1">
          <mxGeometry width="50" height="50" relative="1" as="geometry">
            <mxPoint x="460" y="584" as="sourcePoint" />
            <mxPoint x="740" y="584" as="targetPoint" />
          </mxGeometry>
        </mxCell>
        <mxCell id="4YztuVcXxpJHYgNVAEmz-31" value="성공여부 반환&amp;nbsp;" style="text;strokeColor=none;fillColor=none;align=left;verticalAlign=middle;spacingLeft=4;spacingRight=4;overflow=hidden;points=[[0,0.5],[1,0.5]];portConstraint=eastwest;rotatable=0;whiteSpace=wrap;html=1;" vertex="1" parent="1">
          <mxGeometry x="460" y="490" width="80" height="30" as="geometry" />
        </mxCell>
        <mxCell id="4YztuVcXxpJHYgNVAEmz-32" value="DB 까지 등록 정상 완료시 등록 완료&amp;nbsp;" style="text;strokeColor=none;fillColor=none;align=left;verticalAlign=middle;spacingLeft=4;spacingRight=4;overflow=hidden;points=[[0,0.5],[1,0.5]];portConstraint=eastwest;rotatable=0;whiteSpace=wrap;html=1;" vertex="1" parent="1">
          <mxGeometry x="460" y="585" width="190" height="30" as="geometry" />
        </mxCell>
        <mxCell id="4YztuVcXxpJHYgNVAEmz-33" value="" style="endArrow=classic;html=1;rounded=0;" edge="1" parent="1">
          <mxGeometry width="50" height="50" relative="1" as="geometry">
            <mxPoint x="460" y="630" as="sourcePoint" />
            <mxPoint x="180" y="630" as="targetPoint" />
          </mxGeometry>
        </mxCell>
        <mxCell id="4YztuVcXxpJHYgNVAEmz-34" value="신규 템플릿 등록 API 응답" style="text;strokeColor=none;fillColor=none;align=left;verticalAlign=middle;spacingLeft=4;spacingRight=4;overflow=hidden;points=[[0,0.5],[1,0.5]];portConstraint=eastwest;rotatable=0;whiteSpace=wrap;html=1;" vertex="1" parent="1">
          <mxGeometry x="250" y="600" width="150" height="30" as="geometry" />
        </mxCell>
        <mxCell id="4YztuVcXxpJHYgNVAEmz-35" value="tma-admin" style="rounded=0;whiteSpace=wrap;html=1;" vertex="1" parent="1">
          <mxGeometry x="130" y="1000" width="120" height="60" as="geometry" />
        </mxCell>
        <mxCell id="4YztuVcXxpJHYgNVAEmz-36" value="tma-api" style="rounded=0;whiteSpace=wrap;html=1;" vertex="1" parent="1">
          <mxGeometry x="410" y="1000" width="120" height="60" as="geometry" />
        </mxCell>
        <mxCell id="4YztuVcXxpJHYgNVAEmz-37" value="Maria DB&amp;nbsp;" style="rounded=0;whiteSpace=wrap;html=1;" vertex="1" parent="1">
          <mxGeometry x="690" y="1000" width="120" height="60" as="geometry" />
        </mxCell>
        <mxCell id="4YztuVcXxpJHYgNVAEmz-38" value="IMC" style="rounded=0;whiteSpace=wrap;html=1;" vertex="1" parent="1">
          <mxGeometry x="970" y="1000" width="120" height="60" as="geometry" />
        </mxCell>
        <mxCell id="4YztuVcXxpJHYgNVAEmz-39" value="" style="endArrow=none;html=1;rounded=0;" edge="1" parent="1">
          <mxGeometry width="50" height="50" relative="1" as="geometry">
            <mxPoint x="190" y="1480" as="sourcePoint" />
            <mxPoint x="190" y="1060" as="targetPoint" />
          </mxGeometry>
        </mxCell>
        <mxCell id="4YztuVcXxpJHYgNVAEmz-40" value="" style="endArrow=none;html=1;rounded=0;" edge="1" parent="1">
          <mxGeometry width="50" height="50" relative="1" as="geometry">
            <mxPoint x="470" y="1480" as="sourcePoint" />
            <mxPoint x="469.5" y="1060" as="targetPoint" />
          </mxGeometry>
        </mxCell>
        <mxCell id="4YztuVcXxpJHYgNVAEmz-41" value="" style="endArrow=none;html=1;rounded=0;" edge="1" parent="1" source="4YztuVcXxpJHYgNVAEmz-49">
          <mxGeometry width="50" height="50" relative="1" as="geometry">
            <mxPoint x="749.5" y="1760" as="sourcePoint" />
            <mxPoint x="749.5" y="1060" as="targetPoint" />
          </mxGeometry>
        </mxCell>
        <mxCell id="4YztuVcXxpJHYgNVAEmz-42" value="" style="endArrow=none;html=1;rounded=0;" edge="1" parent="1">
          <mxGeometry width="50" height="50" relative="1" as="geometry">
            <mxPoint x="1030" y="1480" as="sourcePoint" />
            <mxPoint x="1029.5" y="1060" as="targetPoint" />
          </mxGeometry>
        </mxCell>
        <mxCell id="4YztuVcXxpJHYgNVAEmz-43" value="" style="endArrow=classic;html=1;rounded=0;entryX=0;entryY=0.5;entryDx=0;entryDy=0;" edge="1" parent="1" target="4YztuVcXxpJHYgNVAEmz-35">
          <mxGeometry width="50" height="50" relative="1" as="geometry">
            <mxPoint x="20" y="1030" as="sourcePoint" />
            <mxPoint x="70" y="990" as="targetPoint" />
          </mxGeometry>
        </mxCell>
        <mxCell id="4YztuVcXxpJHYgNVAEmz-44" value="&lt;span style=&quot;text-align: center; text-wrap-mode: nowrap;&quot;&gt;신규 템플릿 등록&lt;/span&gt;" style="text;strokeColor=none;fillColor=none;align=left;verticalAlign=middle;spacingLeft=4;spacingRight=4;overflow=hidden;points=[[0,0.5],[1,0.5]];portConstraint=eastwest;rotatable=0;whiteSpace=wrap;html=1;" vertex="1" parent="1">
          <mxGeometry x="30" y="990" width="90" height="30" as="geometry" />
        </mxCell>
        <mxCell id="4YztuVcXxpJHYgNVAEmz-45" value="" style="endArrow=classic;html=1;rounded=0;" edge="1" parent="1">
          <mxGeometry width="50" height="50" relative="1" as="geometry">
            <mxPoint x="190" y="1140" as="sourcePoint" />
            <mxPoint x="470" y="1140" as="targetPoint" />
          </mxGeometry>
        </mxCell>
        <mxCell id="4YztuVcXxpJHYgNVAEmz-46" value="&lt;div&gt;req : template_code, site_seq&amp;nbsp;&lt;/div&gt;등록된 템플릿 검수 신청 (단건/다건)&lt;div&gt;&lt;br&gt;&lt;/div&gt;" style="text;strokeColor=none;fillColor=none;align=left;verticalAlign=middle;spacingLeft=4;spacingRight=4;overflow=hidden;points=[[0,0.5],[1,0.5]];portConstraint=eastwest;rotatable=0;whiteSpace=wrap;html=1;" vertex="1" parent="1">
          <mxGeometry x="240" y="1100" width="190" height="50" as="geometry" />
        </mxCell>
        <mxCell id="4YztuVcXxpJHYgNVAEmz-47" value="IMC에 템플릿 검수요청&amp;nbsp; API 호출&amp;nbsp;" style="text;strokeColor=none;fillColor=none;align=left;verticalAlign=middle;spacingLeft=4;spacingRight=4;overflow=hidden;points=[[0,0.5],[1,0.5]];portConstraint=eastwest;rotatable=0;whiteSpace=wrap;html=1;" vertex="1" parent="1">
          <mxGeometry x="670" y="1139" width="210" height="30" as="geometry" />
        </mxCell>
        <mxCell id="4YztuVcXxpJHYgNVAEmz-48" value="" style="endArrow=none;html=1;rounded=0;" edge="1" parent="1" target="4YztuVcXxpJHYgNVAEmz-49">
          <mxGeometry width="50" height="50" relative="1" as="geometry">
            <mxPoint x="750" y="1480" as="sourcePoint" />
            <mxPoint x="749.5" y="1060" as="targetPoint" />
          </mxGeometry>
        </mxCell>
        <mxCell id="4YztuVcXxpJHYgNVAEmz-49" value="&lt;font style=&quot;font-size: 11px;&quot;&gt;Maria DB&amp;nbsp;&lt;/font&gt;&lt;div style=&quot;font-size: 11px;&quot;&gt;&lt;br&gt;&lt;/div&gt;" style="shape=cylinder3;whiteSpace=wrap;html=1;boundedLbl=1;backgroundOutline=1;size=15;" vertex="1" parent="1">
          <mxGeometry x="650" y="990" width="200" height="87.5" as="geometry" />
        </mxCell>
        <mxCell id="4YztuVcXxpJHYgNVAEmz-50" value="" style="endArrow=classic;startArrow=classic;html=1;rounded=0;" edge="1" parent="1">
          <mxGeometry width="50" height="50" relative="1" as="geometry">
            <mxPoint x="470" y="1170" as="sourcePoint" />
            <mxPoint x="1030" y="1170" as="targetPoint" />
          </mxGeometry>
        </mxCell>
        <mxCell id="4YztuVcXxpJHYgNVAEmz-51" value="테이블 update&amp;nbsp;&lt;div&gt;&lt;span style=&quot;font-size: 11px; text-align: center; background-color: initial;&quot;&gt;PROGRAM_MA_AL_TEMPLATE - approve_status&lt;/span&gt;&lt;/div&gt;" style="text;strokeColor=none;fillColor=none;align=left;verticalAlign=middle;spacingLeft=4;spacingRight=4;overflow=hidden;points=[[0,0.5],[1,0.5]];portConstraint=eastwest;rotatable=0;whiteSpace=wrap;html=1;" vertex="1" parent="1">
          <mxGeometry x="530" y="1220" width="280" height="44" as="geometry" />
        </mxCell>
        <mxCell id="4YztuVcXxpJHYgNVAEmz-52" value="" style="endArrow=classic;startArrow=classic;html=1;rounded=0;" edge="1" parent="1">
          <mxGeometry width="50" height="50" relative="1" as="geometry">
            <mxPoint x="470" y="1264" as="sourcePoint" />
            <mxPoint x="750" y="1264" as="targetPoint" />
          </mxGeometry>
        </mxCell>
        <mxCell id="4YztuVcXxpJHYgNVAEmz-54" value="DB 까지 수정 정상시 검수 요청 완료&amp;nbsp;" style="text;strokeColor=none;fillColor=none;align=left;verticalAlign=middle;spacingLeft=4;spacingRight=4;overflow=hidden;points=[[0,0.5],[1,0.5]];portConstraint=eastwest;rotatable=0;whiteSpace=wrap;html=1;" vertex="1" parent="1">
          <mxGeometry x="470" y="1265" width="190" height="30" as="geometry" />
        </mxCell>
        <mxCell id="4YztuVcXxpJHYgNVAEmz-55" value="" style="endArrow=classic;html=1;rounded=0;" edge="1" parent="1">
          <mxGeometry width="50" height="50" relative="1" as="geometry">
            <mxPoint x="470" y="1310" as="sourcePoint" />
            <mxPoint x="190" y="1310" as="targetPoint" />
          </mxGeometry>
        </mxCell>
        <mxCell id="4YztuVcXxpJHYgNVAEmz-56" value="등록된 템플릿 검수 신청&amp;nbsp;&lt;span style=&quot;background-color: initial;&quot;&gt;응답&lt;/span&gt;" style="text;strokeColor=none;fillColor=none;align=left;verticalAlign=middle;spacingLeft=4;spacingRight=4;overflow=hidden;points=[[0,0.5],[1,0.5]];portConstraint=eastwest;rotatable=0;whiteSpace=wrap;html=1;" vertex="1" parent="1">
          <mxGeometry x="260" y="1280" width="180" height="30" as="geometry" />
        </mxCell>
        <mxCell id="4YztuVcXxpJHYgNVAEmz-59" value="Actor" style="shape=umlActor;verticalLabelPosition=bottom;verticalAlign=top;html=1;outlineConnect=0;" vertex="1" parent="1">
          <mxGeometry x="-5" y="1000" width="30" height="60" as="geometry" />
        </mxCell>
        <mxCell id="4YztuVcXxpJHYgNVAEmz-60" value="등록된 템플릿 검수 신청&amp;nbsp;" style="rounded=1;whiteSpace=wrap;html=1;" vertex="1" parent="1">
          <mxGeometry x="-5" y="910" width="160" height="60" as="geometry" />
        </mxCell>
        <mxCell id="4YztuVcXxpJHYgNVAEmz-61" value="sync batch" style="rounded=0;whiteSpace=wrap;html=1;" vertex="1" parent="1">
          <mxGeometry x="155" y="1720" width="120" height="60" as="geometry" />
        </mxCell>
        <mxCell id="4YztuVcXxpJHYgNVAEmz-63" value="Maria DB&amp;nbsp;" style="rounded=0;whiteSpace=wrap;html=1;" vertex="1" parent="1">
          <mxGeometry x="715" y="1720" width="120" height="60" as="geometry" />
        </mxCell>
        <mxCell id="4YztuVcXxpJHYgNVAEmz-64" value="IMC" style="rounded=0;whiteSpace=wrap;html=1;" vertex="1" parent="1">
          <mxGeometry x="715" y="1720" width="120" height="60" as="geometry" />
        </mxCell>
        <mxCell id="4YztuVcXxpJHYgNVAEmz-65" value="" style="endArrow=none;html=1;rounded=0;" edge="1" parent="1">
          <mxGeometry width="50" height="50" relative="1" as="geometry">
            <mxPoint x="215" y="2200" as="sourcePoint" />
            <mxPoint x="215" y="1780" as="targetPoint" />
          </mxGeometry>
        </mxCell>
        <mxCell id="4YztuVcXxpJHYgNVAEmz-66" value="" style="endArrow=none;html=1;rounded=0;" edge="1" parent="1">
          <mxGeometry width="50" height="50" relative="1" as="geometry">
            <mxPoint x="495" y="2200" as="sourcePoint" />
            <mxPoint x="494.5" y="1780" as="targetPoint" />
          </mxGeometry>
        </mxCell>
        <mxCell id="4YztuVcXxpJHYgNVAEmz-68" value="" style="endArrow=none;html=1;rounded=0;" edge="1" parent="1">
          <mxGeometry width="50" height="50" relative="1" as="geometry">
            <mxPoint x="775" y="2200" as="sourcePoint" />
            <mxPoint x="774.5" y="1780" as="targetPoint" />
          </mxGeometry>
        </mxCell>
        <mxCell id="4YztuVcXxpJHYgNVAEmz-71" value="" style="endArrow=classic;html=1;rounded=0;" edge="1" parent="1">
          <mxGeometry width="50" height="50" relative="1" as="geometry">
            <mxPoint x="215" y="1830" as="sourcePoint" />
            <mxPoint x="500" y="1830" as="targetPoint" />
          </mxGeometry>
        </mxCell>
        <mxCell id="4YztuVcXxpJHYgNVAEmz-72" value="등록된 템플릿 중 승인완료가 아닌 템플릿들 조회&amp;nbsp;" style="text;strokeColor=none;fillColor=none;align=left;verticalAlign=middle;spacingLeft=4;spacingRight=4;overflow=hidden;points=[[0,0.5],[1,0.5]];portConstraint=eastwest;rotatable=0;whiteSpace=wrap;html=1;" vertex="1" parent="1">
          <mxGeometry x="234" y="1790" width="296" height="50" as="geometry" />
        </mxCell>
        <mxCell id="4YztuVcXxpJHYgNVAEmz-75" value="&lt;font style=&quot;font-size: 11px;&quot;&gt;Maria DB&amp;nbsp;&lt;/font&gt;&lt;div style=&quot;font-size: 11px;&quot;&gt;&lt;br&gt;&lt;/div&gt;" style="shape=cylinder3;whiteSpace=wrap;html=1;boundedLbl=1;backgroundOutline=1;size=15;" vertex="1" parent="1">
          <mxGeometry x="400" y="1702.5" width="200" height="87.5" as="geometry" />
        </mxCell>
        <mxCell id="4YztuVcXxpJHYgNVAEmz-76" value="" style="endArrow=classic;startArrow=classic;html=1;rounded=0;entryX=0.383;entryY=1.033;entryDx=0;entryDy=0;entryPerimeter=0;" edge="1" parent="1">
          <mxGeometry width="50" height="50" relative="1" as="geometry">
            <mxPoint x="220" y="1890" as="sourcePoint" />
            <mxPoint x="775.4299999999998" y="1889.9899999999998" as="targetPoint" />
          </mxGeometry>
        </mxCell>
        <mxCell id="4YztuVcXxpJHYgNVAEmz-77" value="테이블 update&amp;nbsp;&lt;div&gt;&lt;span style=&quot;font-size: 11px; text-align: center; background-color: initial;&quot;&gt;PROGRAM_MA_AL_TEMPLATE - approve_status&lt;/span&gt;&lt;/div&gt;" style="text;strokeColor=none;fillColor=none;align=left;verticalAlign=middle;spacingLeft=4;spacingRight=4;overflow=hidden;points=[[0,0.5],[1,0.5]];portConstraint=eastwest;rotatable=0;whiteSpace=wrap;html=1;" vertex="1" parent="1">
          <mxGeometry x="230" y="1920" width="280" height="44" as="geometry" />
        </mxCell>
        <mxCell id="4YztuVcXxpJHYgNVAEmz-78" value="" style="endArrow=classic;startArrow=classic;html=1;rounded=0;" edge="1" parent="1">
          <mxGeometry width="50" height="50" relative="1" as="geometry">
            <mxPoint x="220" y="1970" as="sourcePoint" />
            <mxPoint x="500" y="1970" as="targetPoint" />
          </mxGeometry>
        </mxCell>
        <mxCell id="4YztuVcXxpJHYgNVAEmz-80" value="" style="endArrow=classic;html=1;rounded=0;" edge="1" parent="1">
          <mxGeometry width="50" height="50" relative="1" as="geometry">
            <mxPoint x="495" y="2030" as="sourcePoint" />
            <mxPoint x="215" y="2030" as="targetPoint" />
          </mxGeometry>
        </mxCell>
        <mxCell id="4YztuVcXxpJHYgNVAEmz-81" value="등록된 템플릿 검수 신청&amp;nbsp;&lt;span style=&quot;background-color: initial;&quot;&gt;응답&lt;/span&gt;" style="text;strokeColor=none;fillColor=none;align=left;verticalAlign=middle;spacingLeft=4;spacingRight=4;overflow=hidden;points=[[0,0.5],[1,0.5]];portConstraint=eastwest;rotatable=0;whiteSpace=wrap;html=1;" vertex="1" parent="1">
          <mxGeometry x="285" y="2000" width="180" height="30" as="geometry" />
        </mxCell>
        <mxCell id="4YztuVcXxpJHYgNVAEmz-83" value="템플릿 동기화 배치&amp;nbsp;&amp;nbsp;" style="rounded=1;whiteSpace=wrap;html=1;" vertex="1" parent="1">
          <mxGeometry x="25" y="1620" width="160" height="60" as="geometry" />
        </mxCell>
        <mxCell id="4YztuVcXxpJHYgNVAEmz-84" value="Schedule : 매시 20분 (24:00 ~ 08:00 제외)&lt;div&gt;&lt;br&gt;&lt;/div&gt;" style="text;strokeColor=none;fillColor=none;align=left;verticalAlign=middle;spacingLeft=4;spacingRight=4;overflow=hidden;points=[[0,0.5],[1,0.5]];portConstraint=eastwest;rotatable=0;whiteSpace=wrap;html=1;" vertex="1" parent="1">
          <mxGeometry x="30" y="1690" width="370" height="40" as="geometry" />
        </mxCell>
        <mxCell id="4YztuVcXxpJHYgNVAEmz-86" value="IMC에 템플릿 조회 API 호출&amp;nbsp;&lt;div&gt;- 승인/반려 여부 확인&amp;nbsp;&lt;/div&gt;" style="text;strokeColor=none;fillColor=none;align=left;verticalAlign=middle;spacingLeft=4;spacingRight=4;overflow=hidden;points=[[0,0.5],[1,0.5]];portConstraint=eastwest;rotatable=0;whiteSpace=wrap;html=1;" vertex="1" parent="1">
          <mxGeometry x="555" y="1850" width="210" height="30" as="geometry" />
        </mxCell>
      </root>
    </mxGraphModel>
  </diagram>
</mxfile>
